<?xml version="1.0" standalone="no"?>
<!DOCTYPE svg PUBLIC "-//W3C//DTD SVG 20010904//EN"
 "http://www.w3.org/TR/2001/REC-SVG-20010904/DTD/svg10.dtd">
<svg version="1.0" xmlns="http://www.w3.org/2000/svg"
 width="850.000000pt" height="850.000000pt" viewBox="0 0 850.000000 850.000000"
 preserveAspectRatio="xMidYMid meet">
<metadata>
Created by potrace 1.14, written by Peter Selinger 2001-2017
</metadata>
<g transform="translate(0.000000,850.000000) scale(0.100000,-0.100000)"
fill="#000000" stroke="none">
<path d="M2360 8460 c0 -5 -13 -10 -30 -10 -16 0 -30 -4 -30 -10 0 -5 5 -10
12 -10 9 0 9 -3 0 -12 -8 -8 -15 -8 -24 0 -10 8 -25 3 -61 -19 -26 -16 -51
-29 -56 -29 -5 0 -11 -4 -13 -10 -5 -14 -101 -21 -110 -7 -5 9 -59 12 -185 11
-143 -1 -199 -5 -288 -23 -60 -13 -130 -27 -155 -31 -176 -30 -542 -151 -785
-260 -128 -57 -432 -211 -500 -253 -44 -27 -92 -57 -107 -66 l-28 -16 0 -241
c0 -206 2 -243 15 -248 10 -4 23 8 40 34 14 22 25 44 25 49 0 6 7 8 15 5 18
-7 49 22 39 37 -4 8 0 9 15 4 15 -4 29 -1 42 10 15 15 21 15 34 5 13 -11 15
-8 15 14 0 23 3 26 20 21 24 -8 60 11 60 30 0 18 12 19 28 3 10 -10 14 -8 18
10 4 12 13 22 20 22 8 0 14 5 14 10 0 6 7 10 16 10 8 0 12 5 9 10 -4 6 8 10
27 11 27 0 30 2 13 9 -17 7 -17 9 -2 9 9 1 17 6 17 11 0 6 11 10 24 10 15 0
26 7 29 20 4 16 14 20 54 21 l48 2 -40 7 -40 7 43 2 c26 0 42 -3 42 -11 0 -14
33 20 42 44 4 9 2 19 -5 22 -7 2 1 5 16 5 16 1 26 5 22 11 -3 6 1 7 9 4 9 -3
24 -3 34 2 9 4 28 9 42 10 85 8 180 56 180 89 0 8 8 11 18 8 10 -2 26 5 36 16
11 12 26 21 34 21 8 0 21 8 28 18 7 9 16 17 21 17 15 1 72 35 80 48 4 7 33 25
63 40 65 33 93 50 100 58 3 4 15 9 27 13 13 4 29 13 35 20 19 18 142 76 161
76 9 0 17 6 17 13 0 7 23 18 50 24 28 7 58 19 66 28 23 23 61 19 67 -7 8 -28
8 -28 -50 -38 -26 -4 -38 -8 -26 -9 35 -2 38 -21 4 -21 -17 0 -31 -4 -31 -10
0 -5 7 -10 16 -10 14 0 14 -1 0 -16 -9 -8 -16 -20 -16 -25 0 -5 -12 -9 -27 -8
l-28 1 30 13 30 14 -27 1 c-14 0 -40 -8 -57 -17 -24 -14 -30 -23 -26 -40 4
-16 0 -23 -15 -28 -11 -3 -20 -11 -20 -16 0 -5 -11 -9 -25 -9 -14 0 -29 -8
-35 -20 -6 -11 -18 -20 -26 -20 -8 0 -12 -4 -9 -10 3 -5 -3 -10 -14 -10 -12 0
-21 -6 -21 -13 0 -7 -16 -21 -35 -31 -19 -11 -35 -23 -35 -28 0 -4 -9 -8 -20
-8 -11 0 -20 -5 -20 -10 0 -15 -71 -56 -90 -52 -11 2 -12 1 -2 -6 9 -6 -3 -21
-44 -53 -32 -24 -68 -54 -81 -67 -14 -12 -29 -20 -34 -17 -5 4 -9 0 -9 -7 0
-7 -17 -24 -38 -37 -20 -14 -46 -33 -57 -43 -70 -64 -124 -111 -152 -130 -18
-13 -33 -29 -33 -35 0 -7 -3 -13 -8 -13 -10 0 -149 -126 -188 -172 -6 -7 -29
-30 -50 -50 -21 -20 -64 -65 -94 -99 -30 -34 -65 -73 -77 -87 -13 -14 -23 -28
-23 -32 0 -3 -15 -22 -32 -42 -62 -69 -88 -100 -88 -107 0 -4 -18 -25 -40 -46
-22 -21 -40 -48 -40 -58 0 -10 -9 -21 -20 -24 -11 -3 -20 -10 -20 -16 0 -5
-12 -26 -27 -46 -16 -20 -34 -46 -40 -60 -15 -28 -17 -85 -3 -76 6 3 10 15 10
26 0 16 5 19 19 14 15 -5 18 -2 14 14 -3 13 2 23 16 30 12 7 21 19 21 27 0 9
23 38 51 66 41 40 55 49 75 44 13 -4 24 -2 24 3 0 5 -8 11 -17 13 -15 3 -15 4
1 21 15 15 15 17 2 17 -9 0 -16 5 -16 10 0 6 11 10 25 10 14 0 25 5 25 10 0
13 41 73 53 79 13 5 60 51 53 51 -4 0 25 31 64 70 38 38 70 73 70 77 0 4 18
21 40 37 22 17 40 36 40 43 0 7 7 13 15 13 8 0 15 5 15 10 0 6 4 10 10 10 11
0 94 80 83 80 -4 0 7 8 25 16 17 9 32 23 32 30 0 8 9 14 20 14 11 0 20 7 20
15 0 8 21 30 48 49 26 19 56 44 68 55 12 12 29 21 38 21 10 0 15 4 12 8 -6 10
47 52 64 52 5 0 10 7 10 15 0 8 9 15 21 15 11 0 18 4 15 8 -8 13 11 35 23 28
6 -4 9 -12 6 -17 -4 -5 -1 -9 4 -9 6 0 11 7 11 15 0 17 35 55 50 55 6 0 10 7
10 15 0 8 6 15 13 15 25 0 77 31 77 46 0 8 4 13 9 10 5 -3 14 1 21 9 7 8 18
15 25 15 7 0 18 7 25 15 7 8 20 15 30 15 10 0 20 7 24 15 3 8 11 15 18 15 7 0
22 11 32 25 12 16 25 23 36 20 10 -3 26 5 40 20 13 14 30 25 37 25 26 0 140
65 136 78 -3 8 6 12 26 12 17 0 31 4 31 10 0 5 18 13 40 16 22 4 40 11 40 16
0 5 5 6 10 3 15 -9 50 4 50 20 0 8 12 13 33 13 17 0 40 2 51 5 21 4 40 32 31
46 -3 5 -1 12 4 15 10 7 25 -60 16 -74 -3 -6 0 -10 8 -10 10 0 13 8 9 25 -4
26 12 35 22 13 3 -7 4 -1 3 14 -2 15 -1 27 2 26 3 -1 14 2 25 7 11 5 26 4 36
-3 13 -8 23 -7 40 5 17 12 19 17 9 24 -22 14 10 10 51 -6 l35 -13 -32 -1 c-18
-1 -33 -3 -33 -6 0 -12 42 -45 50 -40 16 10 11 25 -7 26 -22 1 23 17 52 18 17
1 18 -1 5 -10 -12 -9 -11 -9 5 -3 11 4 35 9 53 12 30 4 33 7 27 29 -5 21 -4
23 9 11 7 -7 12 -16 9 -20 -2 -5 11 -8 29 -8 22 0 28 3 20 9 -20 12 7 21 33
10 16 -6 17 -8 3 -8 -16 -1 -15 -4 3 -36 12 -19 25 -35 31 -35 5 0 8 -8 6 -18
-3 -22 18 -52 37 -52 8 0 11 8 8 20 -4 15 0 20 15 20 12 0 23 -4 26 -8 3 -5
20 -7 38 -4 29 4 31 3 17 -10 -8 -9 -25 -19 -37 -22 -13 -4 -22 -16 -22 -27 0
-20 15 -26 25 -9 3 6 10 10 16 10 5 0 9 -4 9 -10 0 -5 -7 -10 -15 -10 -8 0
-15 -4 -15 -10 0 -13 -38 -32 -51 -25 -6 4 -3 12 8 21 17 12 17 13 1 14 -10 0
-25 -11 -34 -25 -9 -14 -25 -25 -35 -25 -11 0 -19 -6 -19 -13 0 -13 -60 -37
-94 -37 -9 0 -16 -7 -16 -15 0 -9 -9 -15 -23 -15 -16 0 -28 -10 -40 -32 -12
-25 -16 -28 -16 -13 -1 18 -2 18 -17 -4 -12 -17 -22 -21 -40 -17 -14 4 -24 2
-24 -5 0 -19 -28 -39 -54 -39 -14 0 -26 -4 -26 -9 0 -5 -13 -12 -30 -16 -35
-8 -46 -6 -43 6 7 23 -28 6 -42 -21 -9 -16 -23 -30 -33 -31 -12 0 -13 -2 -3
-6 8 -3 -5 -15 -34 -30 -38 -19 -50 -21 -56 -11 -7 11 -12 11 -29 0 -17 -10
-25 -11 -36 -1 -8 7 -13 18 -10 25 4 10 -2 10 -27 1 l-32 -11 30 -12 30 -13
-42 -1 c-32 0 -46 -6 -61 -25 -11 -14 -24 -25 -30 -25 -10 0 -26 -29 -24 -42
1 -5 -3 -8 -10 -8 -13 0 -78 -68 -78 -81 0 -5 -4 -9 -10 -9 -5 0 -10 -7 -10
-15 0 -8 -4 -15 -8 -15 -4 0 -15 -15 -23 -32 -23 -48 -129 -261 -139 -278 -45
-79 -190 -380 -190 -393 0 -9 -7 -17 -15 -17 -8 0 -15 -3 -16 -7 0 -5 -2 -19
-3 -32 -2 -13 -10 -28 -19 -33 -10 -5 -17 -17 -17 -27 0 -10 -9 -28 -19 -40
-11 -13 -18 -28 -15 -36 3 -7 -2 -15 -10 -18 -9 -4 -13 -13 -10 -21 3 -8 1
-17 -5 -21 -18 -11 -12 -35 8 -35 33 0 31 -15 -1 -17 -17 -1 -33 -4 -35 -6 -2
-3 -5 -25 -6 -51 -3 -49 -18 -63 -27 -24 -9 37 -24 2 -23 -54 0 -27 -3 -51 -8
-53 -4 -3 -5 -13 -2 -22 5 -14 1 -15 -28 -10 -21 5 -29 4 -20 -2 8 -5 11 -16
8 -26 -5 -10 -3 -14 5 -9 17 11 1 -58 -18 -76 -13 -11 -18 -12 -21 -2 -8 21
-23 13 -23 -12 0 -34 -10 -57 -22 -50 -7 5 -8 -9 -4 -40 6 -38 5 -46 -8 -46
-22 0 -20 -18 2 -22 11 -3 2 -9 -24 -17 -37 -12 -40 -16 -39 -45 3 -40 -3 -56
-22 -56 -9 0 -12 -6 -8 -19 3 -12 0 -21 -10 -25 -8 -3 -15 -12 -15 -19 0 -8
-9 -22 -19 -31 -11 -10 -17 -25 -14 -37 3 -10 1 -19 -4 -19 -5 0 -17 -19 -27
-42 -24 -61 -33 -73 -45 -70 -6 1 -11 -13 -11 -33 0 -24 -6 -39 -20 -47 -13
-8 -20 -24 -20 -43 0 -17 -7 -40 -15 -52 -23 -33 4 -35 37 -3 18 18 28 40 30
66 2 28 11 46 30 62 16 13 28 28 28 34 0 6 9 18 19 27 13 11 17 22 11 31 -8
13 6 38 55 93 8 9 15 23 15 31 0 8 4 16 10 18 5 2 11 19 13 38 3 40 35 56 44
22 3 -12 11 -18 17 -16 7 3 19 -3 27 -12 12 -14 10 -19 -9 -34 -12 -10 -22
-24 -22 -30 0 -9 -11 -11 -33 -7 -32 5 -33 4 -29 -23 3 -25 0 -30 -23 -36 -18
-4 -23 -10 -16 -17 7 -7 18 -5 35 7 14 9 30 16 36 16 17 0 11 -28 -8 -33 -15
-4 -15 -5 2 -6 12 -1 16 -6 12 -16 -3 -8 -1 -15 5 -15 6 0 8 -4 4 -10 -7 -12
-36 -1 -53 19 -11 14 -12 13 -7 -7 4 -15 1 -24 -9 -28 -9 -3 -16 -13 -16 -20
0 -8 -13 -17 -30 -20 -16 -4 -30 -13 -30 -20 0 -8 -4 -14 -10 -14 -5 0 -10
-10 -10 -22 0 -12 -7 -29 -16 -39 -14 -15 -13 -19 11 -37 l26 -21 -33 -17
c-44 -22 -43 -21 -27 -40 10 -13 11 -18 2 -21 -23 -8 -2 -33 23 -27 15 4 24 2
24 -5 0 -6 -11 -11 -24 -11 -14 0 -27 -4 -31 -10 -3 -5 -11 -8 -18 -6 -7 1 -9
1 -4 -1 4 -3 7 -12 7 -22 0 -9 5 -22 11 -28 8 -8 8 -13 0 -17 -6 -4 -11 -2
-11 4 0 7 -12 4 -30 -7 -31 -18 -40 -47 -17 -56 17 -6 32 3 40 23 4 9 6 4 4
-10 -2 -22 -6 -25 -40 -24 -36 1 -37 0 -37 -35 0 -30 -5 -40 -30 -54 -16 -10
-30 -15 -30 -10 0 4 -8 -1 -16 -12 -15 -19 -15 -19 -9 8 5 17 3 27 -4 27 -13
0 -14 -75 -1 -105 5 -12 9 -15 9 -5 1 11 4 11 13 2 10 -10 10 -15 -2 -22 -8
-5 -19 -6 -25 -2 -5 3 -4 -2 4 -11 12 -15 10 -19 -10 -36 -13 -11 -36 -22 -51
-25 -21 -4 -28 -11 -28 -28 0 -13 -9 -36 -20 -53 -25 -37 -25 -52 -2 -58 15
-4 15 -5 0 -6 -23 -1 -48 26 -48 52 -1 19 -2 20 -10 5 -11 -18 -2 -78 11 -78
5 0 9 -6 9 -14 0 -8 6 -17 13 -19 10 -4 10 -6 0 -6 -7 -1 -13 -8 -13 -16 0
-18 -52 -20 -97 -5 -22 8 -29 16 -27 33 1 12 3 26 3 30 1 4 12 18 25 30 30 28
39 80 14 85 -10 2 -18 -1 -18 -6 0 -24 -55 -132 -67 -132 -7 0 -13 -4 -13 -10
0 -5 4 -10 9 -10 5 0 11 -7 15 -15 4 -13 2 -13 -14 -5 -31 17 -43 12 -36 -15
5 -18 1 -27 -14 -35 -15 -8 -20 -21 -20 -50 0 -36 -3 -40 -24 -40 -40 0 -56
-25 -56 -86 0 -58 17 -73 26 -24 4 17 12 30 19 30 8 0 15 6 18 13 3 8 9 6 20
-8 11 -14 12 -24 5 -32 -6 -7 -8 -25 -4 -40 5 -26 5 -27 -6 -5 -6 12 -17 22
-25 22 -17 0 -17 -10 4 -32 9 -11 11 -18 5 -18 -7 0 -12 5 -12 10 0 6 -11 10
-25 10 -20 0 -25 -5 -25 -25 0 -24 3 -25 48 -24 26 1 62 -1 79 -5 28 -7 33
-12 33 -37 0 -17 -4 -28 -10 -24 -5 3 -7 12 -4 19 7 19 -13 24 -84 18 l-62 -4
2 -1092 c2 -637 7 -1099 12 -1110 7 -14 6 -17 -2 -12 -8 5 -12 -2 -12 -21 0
-22 2 -25 10 -13 7 12 10 12 10 1 0 -7 6 -11 14 -8 10 4 18 -2 22 -16 4 -12 9
-24 13 -27 18 -14 52 -104 48 -126 -2 -13 0 -24 4 -24 5 0 9 5 9 11 0 19 24
-6 58 -61 28 -45 29 -51 14 -61 -16 -10 -16 -10 0 -5 10 3 18 2 18 -3 0 -21
121 -49 395 -91 33 -5 99 -16 148 -24 48 -9 102 -18 120 -20 17 -3 61 -10 97
-16 36 -6 106 -17 157 -25 50 -8 147 -23 215 -34 67 -11 229 -36 358 -56 129
-19 314 -48 410 -65 96 -16 189 -30 207 -30 33 0 51 14 33 25 -17 10 -11 25
10 25 11 0 20 -5 20 -11 0 -5 4 -7 10 -4 5 3 10 21 10 38 0 24 -3 28 -10 17
-5 -8 -12 -11 -17 -7 -4 4 -2 17 5 27 7 11 12 29 12 39 0 11 8 25 18 30 15 9
15 12 2 21 -13 8 -12 10 3 10 10 0 16 4 13 9 -3 5 4 11 16 15 22 5 23 6 3 21
-20 16 -20 16 2 10 26 -7 29 -2 9 18 -9 9 -11 19 -5 28 7 11 9 11 9 -3 0 -24
25 -13 39 18 8 17 8 31 1 44 -6 11 -6 21 -1 24 5 3 12 -1 15 -10 3 -8 11 -12
17 -9 6 4 8 14 4 22 -3 9 4 35 16 60 11 24 18 50 15 59 -3 8 1 17 8 20 8 3 17
15 21 27 7 21 8 20 12 -5 2 -16 10 -28 16 -28 17 1 62 100 60 130 -1 14 0 19
3 13 8 -19 24 -16 24 5 0 10 5 23 11 29 16 16 0 63 -22 63 -29 0 -23 28 13 61
18 16 27 29 20 29 -6 0 -12 7 -12 15 0 8 7 15 15 15 8 0 15 7 15 15 0 8 5 15
10 15 6 0 10 -5 10 -12 0 -6 7 -3 15 8 15 20 21 59 7 50 -4 -2 -9 5 -9 17 -2
17 0 19 7 7 14 -23 29 -1 32 47 2 22 7 39 11 36 4 -2 5 7 1 21 -4 16 -2 26 5
26 6 0 12 -8 12 -17 1 -10 4 -4 8 12 4 17 3 33 -2 36 -5 4 -3 9 4 12 10 4 9 6
-3 6 -13 1 -17 10 -15 41 1 22 6 39 12 39 24 -3 36 2 29 12 -4 8 -9 7 -15 -2
-16 -25 -10 40 6 71 13 24 13 33 3 50 -7 11 -15 20 -19 20 -11 0 -6 35 8 51
10 12 11 23 3 43 -12 33 -12 60 0 29 14 -35 32 -28 25 10 -5 27 -1 38 27 69
42 46 58 73 58 98 0 11 7 20 15 20 12 0 13 4 5 19 -5 11 -10 31 -10 46 0 16
-4 24 -11 20 -6 -4 -5 2 3 14 15 25 29 23 43 -7 5 -12 19 -22 30 -23 11 0 40
-2 64 -5 l44 -5 -28 24 c-19 16 -28 34 -29 55 0 18 -4 32 -8 32 -3 0 -10 14
-13 32 -6 24 -3 35 11 45 21 15 48 17 39 3 -3 -6 0 -17 9 -25 20 -20 24 -19
22 8 -1 12 2 24 6 27 14 11 -4 48 -29 59 -13 6 -23 17 -21 23 2 6 -10 25 -27
42 -38 37 -49 64 -35 82 9 9 7 15 -7 22 -10 6 -20 23 -21 39 -1 15 -11 35 -21
43 -28 22 -31 55 -6 55 11 1 26 4 33 8 14 10 16 57 2 57 -5 0 -10 11 -10 25 0
18 -7 26 -25 31 -14 3 -23 10 -20 14 3 5 -3 15 -12 22 -10 7 -24 23 -31 36
-10 19 -10 22 4 22 8 0 13 4 10 8 -3 5 -6 25 -8 45 -1 28 -6 37 -20 37 -13 0
-18 -8 -18 -30 0 -16 -4 -30 -9 -30 -15 0 -18 52 -5 80 6 14 18 39 25 55 8 17
22 39 32 49 9 11 17 26 17 33 0 7 9 13 20 13 11 0 23 7 26 15 4 8 11 12 17 8
6 -4 8 0 4 10 -4 11 1 17 16 20 21 3 21 4 -5 15 -29 12 -44 30 -33 40 4 4 10
1 12 -5 5 -15 33 -17 33 -3 0 6 -7 10 -15 10 -8 0 -15 4 -15 10 0 5 -7 7 -16
3 -15 -6 -16 0 -10 43 13 93 12 143 -2 132 -10 -8 -12 -4 -12 18 0 16 0 52 0
81 1 30 -7 69 -19 95 -25 55 -32 88 -19 88 16 0 68 40 68 53 0 8 -3 8 -9 -1
-7 -11 -9 -11 -14 2 -4 10 2 25 14 37 19 19 21 31 17 104 -1 46 0 78 4 72 8
-14 13 -9 22 21 5 15 3 24 -8 28 -29 11 -16 22 24 20 22 -1 40 1 40 6 0 4 -6
8 -14 8 -19 0 -15 48 5 61 11 7 11 11 2 17 -8 5 -9 13 -3 22 8 13 10 12 10 -2
0 -21 13 -23 32 -5 7 7 22 18 33 25 19 10 18 12 -14 23 l-33 12 51 48 52 49
24 -26 c20 -22 30 -25 57 -20 72 15 118 18 118 7 0 -6 -18 -11 -40 -11 -22 0
-40 -4 -40 -10 0 -5 -12 -10 -27 -10 -16 0 -35 -5 -43 -10 -17 -11 -30 -10
140 -16 l115 -3 30 28 c24 23 43 30 93 35 77 9 92 14 92 32 0 8 10 14 26 14
19 0 25 -4 21 -15 -4 -8 -1 -17 4 -21 14 -8 60 16 53 28 -3 4 1 8 8 9 7 0 21
2 31 4 9 2 17 -1 17 -6 0 -15 50 -10 66 6 21 21 94 20 94 -1 0 -12 9 -14 38
-12 32 3 37 7 40 31 3 24 7 27 43 27 36 0 39 -2 39 -26 0 -27 0 -27 61 -20 34
3 70 6 80 6 11 0 19 7 19 15 0 8 8 15 18 15 31 0 62 -12 62 -24 0 -8 13 -11
36 -8 24 3 39 0 45 -9 8 -12 10 -12 18 0 8 12 12 12 25 2 8 -7 14 -18 13 -23
-1 -6 4 -13 12 -16 11 -3 12 2 7 23 l-7 27 33 -31 c18 -17 39 -31 46 -31 6 0
12 -10 13 -22 l0 -23 9 23 c5 12 14 22 20 22 5 0 10 9 10 20 0 11 4 20 9 20 6
0 7 -16 4 -35 -4 -28 -1 -39 13 -50 28 -21 34 -18 34 15 0 20 5 30 15 30 8 0
18 0 23 1 4 0 10 -10 14 -23 6 -22 6 -22 7 4 l1 27 78 -1 c80 0 116 -11 109
-31 -2 -7 4 -22 14 -35 9 -12 15 -32 13 -45 -4 -21 -4 -21 6 2 7 17 15 21 28
16 36 -15 52 -17 52 -6 0 6 5 11 10 11 6 0 10 -13 10 -30 0 -28 2 -30 40 -30
34 0 42 4 55 30 19 37 32 38 47 5 6 -14 18 -25 25 -25 8 0 11 -4 8 -10 -4 -6
8 -10 30 -10 20 0 46 -7 59 -15 22 -15 27 -14 59 4 30 17 37 18 47 6 13 -15
10 -46 -5 -57 -5 -4 0 -8 13 -8 13 0 22 -6 22 -15 0 -11 11 -15 40 -15 33 0
40 3 40 20 0 13 7 20 20 20 14 0 18 -5 13 -16 -6 -15 3 -16 76 -12 63 4 84 2
88 -9 7 -17 43 -17 43 1 0 10 20 15 73 20 118 9 121 8 125 -43 3 -33 8 -44 23
-48 12 -3 19 -14 19 -28 0 -13 6 -26 13 -29 10 -5 10 -7 0 -12 -23 -10 -14
-23 20 -27 l32 -4 -32 -1 c-22 -1 -33 -7 -33 -17 0 -11 12 -15 43 -17 l42 -1
-45 -7 c-25 -4 -37 -8 -27 -8 10 -1 15 -6 12 -12 -3 -5 -2 -10 2 -10 5 0 10
-13 11 -28 2 -21 -4 -32 -20 -40 -13 -6 -17 -11 -10 -11 14 -1 17 -31 2 -31
-24 0 -7 -20 27 -31 21 -6 43 -18 50 -25 15 -15 17 -34 4 -34 -6 0 -11 -15
-13 -32 -2 -27 -8 -34 -29 -36 -26 -3 -27 -5 -27 -68 0 -53 -3 -68 -21 -83
-22 -19 -29 -51 -11 -51 6 0 10 -20 10 -45 l0 -45 -40 0 c-22 0 -40 -4 -40
-10 0 -5 18 -10 40 -10 22 0 40 -4 40 -9 0 -5 -18 -12 -40 -16 l-40 -7 0 -56
c0 -33 -4 -52 -8 -44 -6 8 -19 10 -40 6 -32 -6 -32 -7 -32 -66 0 -33 -4 -57
-9 -54 -5 3 -7 15 -4 25 5 21 -14 38 -27 25 -5 -5 -11 -30 -13 -56 -4 -37 -2
-48 11 -54 14 -6 13 -8 -8 -14 -33 -9 -39 3 -33 68 5 49 4 54 -13 50 -13 -2
-19 -12 -19 -35 0 -17 -3 -35 -7 -39 -13 -12 -9 -31 8 -49 16 -15 15 -18 -5
-38 l-21 -21 0 27 c0 20 -5 27 -20 27 -16 0 -20 -7 -20 -30 0 -23 -4 -30 -20
-30 -16 0 -20 7 -20 30 0 17 -4 30 -10 30 -6 0 -10 28 -10 65 0 66 -3 72 -30
55 -12 -7 -12 -10 -1 -10 7 0 11 -6 7 -15 -3 -8 0 -15 6 -15 7 0 2 -9 -10 -20
-12 -12 -22 -25 -22 -30 0 -6 -7 -10 -15 -10 -10 0 -15 -10 -15 -30 0 -23 5
-30 19 -30 10 0 22 -7 25 -16 9 -22 8 -24 -11 -25 -15 0 -15 -2 2 -8 18 -7 17
-9 -11 -24 -19 -10 -36 -29 -42 -47 -6 -16 -15 -30 -19 -30 -4 0 -16 -7 -27
-15 -17 -13 -17 -15 -3 -29 9 -9 28 -16 44 -17 l28 -1 -25 -7 c-23 -7 -21 -8
17 -15 24 -4 45 -12 49 -17 3 -5 14 -9 25 -9 11 0 31 -11 45 -25 14 -14 29
-25 34 -25 6 0 10 -5 10 -10 0 -6 11 -16 25 -22 14 -6 46 -42 70 -79 38 -58
45 -76 45 -118 0 -66 -13 -71 -30 -13 -18 60 -48 112 -66 112 -16 0 -19 -47
-4 -70 10 -16 -5 -40 -25 -40 -8 0 -10 9 -8 24 4 20 1 24 -13 21 -11 -2 -36
-6 -56 -9 -34 -4 -37 -2 -40 22 -3 31 -21 33 -26 3 -2 -11 6 -26 19 -35 17
-11 19 -16 8 -20 -8 -2 -22 -7 -31 -10 -11 -3 -15 -11 -12 -21 4 -10 0 -15
-14 -15 -11 0 -25 -7 -32 -15 -7 -8 -21 -15 -31 -15 -12 0 -19 -7 -19 -20 0
-11 -7 -20 -15 -20 -8 0 -16 -4 -16 -10 -2 -13 -4 -21 -12 -42 -4 -10 -10 -26
-14 -35 -3 -10 -7 -22 -7 -26 -1 -4 -8 -12 -16 -17 -8 -5 -11 -10 -6 -10 6 0
2 -6 -9 -13 -19 -15 -13 -37 10 -37 23 0 37 -36 20 -50 -19 -16 -19 -30 0 -30
8 0 15 -4 15 -10 0 -5 -6 -10 -12 -10 -20 0 -93 -54 -96 -70 -4 -20 -43 -50
-64 -50 -35 0 -17 -18 22 -22 27 -2 40 0 40 9 0 7 7 10 15 7 26 -10 -14 -33
-57 -34 -27 0 -38 -4 -38 -15 0 -11 -11 -15 -37 -15 -51 0 -81 -9 -87 -26 -4
-12 5 -13 49 -8 38 5 55 3 55 -5 0 -6 -9 -11 -19 -11 -11 0 -23 -5 -27 -11 -5
-8 -41 -10 -123 -6 -102 5 -118 8 -130 26 -10 16 -17 18 -32 10 -11 -5 -26 -9
-35 -7 -22 4 -44 -30 -26 -41 7 -4 14 -19 15 -33 3 -37 78 -91 92 -67 4 5 14
0 24 -12 16 -20 26 -22 137 -20 101 1 179 11 302 38 22 5 52 -11 52 -28 0 -5
-13 -9 -30 -9 -25 0 -30 -4 -29 -22 0 -13 3 -17 6 -10 6 16 28 15 42 -2 10
-11 8 -16 -9 -21 -12 -4 -24 -4 -27 -1 -8 7 -43 -12 -43 -24 0 -6 7 -10 16
-10 14 0 14 -3 4 -15 -7 -8 -20 -15 -29 -15 -13 0 -14 -2 -2 -9 15 -10 22 -30
23 -66 2 -47 -2 -55 -27 -55 -23 0 -25 -4 -25 -46 0 -37 3 -45 15 -40 11 4 15
-2 15 -24 0 -35 -22 -50 -77 -51 -21 0 -32 -3 -25 -6 6 -2 12 -12 12 -20 0 -9
-6 -13 -15 -9 -9 3 -15 0 -15 -10 0 -8 4 -13 9 -9 5 3 13 0 17 -6 4 -6 0 -15
-8 -20 -9 -5 -19 -20 -22 -34 -4 -14 -12 -25 -19 -25 -9 0 -9 -2 1 -8 9 -7 10
-16 1 -41 -9 -26 -9 -35 1 -41 9 -6 6 -9 -11 -12 -17 -2 -24 -9 -24 -25 0 -11
-3 -25 -7 -29 -5 -4 -8 5 -8 19 0 34 -17 35 -31 3 -8 -16 -23 -26 -48 -31 -32
-6 -34 -8 -15 -15 29 -11 37 -26 25 -47 -6 -11 -11 -13 -11 -5 0 7 -5 10 -11
6 -7 -4 1 -18 20 -38 l31 -32 -20 -22 c-11 -11 -20 -35 -20 -51 0 -21 -6 -32
-20 -36 -13 -4 -20 -14 -19 -28 5 -57 0 -68 -27 -61 -26 7 -26 7 -21 -45 4
-41 2 -51 -8 -48 -9 4 -11 -1 -7 -15 2 -11 11 -22 18 -25 8 -3 14 -9 14 -15 0
-5 -3 -7 -7 -5 -5 2 -18 -7 -30 -20 l-22 -23 25 0 c21 0 24 -3 19 -21 -4 -12
-3 -19 2 -16 19 12 0 -53 -23 -78 -13 -15 -22 -30 -19 -35 3 -5 1 -11 -5 -15
-5 -3 -10 -19 -10 -36 0 -16 -4 -29 -10 -29 -5 0 -10 -16 -10 -36 0 -20 -9
-48 -20 -64 -14 -19 -17 -31 -10 -35 6 -4 66 -17 133 -30 67 -12 158 -30 202
-38 44 -9 123 -23 175 -32 52 -9 127 -23 167 -31 39 -8 100 -18 135 -23 35 -6
104 -17 153 -26 50 -8 182 -31 295 -51 113 -19 243 -41 290 -49 199 -35 347
-58 372 -58 28 0 65 10 248 70 163 54 298 113 334 146 11 9 23 17 27 17 4 0
34 24 65 53 31 28 61 51 66 49 5 -1 7 1 4 6 -3 5 25 35 62 68 100 88 315 307
397 405 76 89 98 123 89 132 -3 3 10 13 30 22 20 10 36 22 36 27 0 6 12 26 27
44 73 90 83 102 83 108 0 8 37 62 63 90 9 11 17 26 17 33 0 7 5 13 10 13 7 0
10 785 10 2334 0 2100 -2 2334 -16 2340 -8 3 -12 2 -9 -4 3 -6 2 -10 -4 -10
-5 0 -20 17 -32 38 -13 20 -31 46 -41 56 -10 11 -18 25 -18 31 0 7 -9 20 -20
30 -11 10 -20 29 -20 42 0 13 -7 26 -15 29 -8 4 -12 10 -9 15 3 5 0 9 -6 9 -6
0 -36 23 -66 52 -38 36 -54 58 -51 70 4 13 -1 18 -14 18 -11 0 -19 7 -19 18 0
16 -67 69 -81 65 -4 -1 -5 6 -2 16 3 13 -2 20 -20 25 -19 4 -24 11 -20 26 4
14 0 20 -11 20 -8 0 -31 16 -50 35 -20 19 -38 35 -41 35 -10 0 -43 38 -38 44
4 3 1 6 -5 6 -7 0 -11 3 -11 8 7 44 -40 97 -79 87 -19 -5 -23 -2 -20 12 2 10
8 18 15 18 27 0 22 14 -8 20 -18 4 -43 19 -55 32 -20 21 -26 23 -39 13 -10 -9
-15 -9 -15 -1 0 6 5 11 10 11 13 0 13 37 0 45 -5 3 -10 -3 -10 -14 0 -15 -6
-21 -24 -21 -27 0 -42 25 -20 34 20 8 8 26 -17 26 -17 0 -19 7 -19 80 0 74 -2
80 -21 80 -25 0 -59 17 -59 30 0 13 77 13 82 1 2 -5 43 -12 93 -15 52 -4 99
-13 112 -21 17 -11 29 -12 49 -5 27 11 64 5 64 -10 0 -13 -42 -20 -62 -9 -14
7 -18 6 -18 -6 0 -9 9 -15 23 -15 13 0 28 -5 33 -10 8 -8 19 -7 37 1 32 14 57
-1 57 -35 0 -31 15 -52 26 -35 4 7 3 14 -4 17 -7 2 -12 7 -12 12 0 10 62 -19
72 -34 5 -8 8 -7 8 2 0 27 20 10 31 -28 14 -48 49 -58 49 -14 0 14 4 23 10 19
20 -12 10 -43 -18 -53 l-27 -9 38 -8 c20 -4 49 -5 63 -2 18 3 24 1 20 -9 -3
-8 0 -11 9 -8 8 3 12 -1 12 -13 -2 -14 6 -19 36 -21 22 -2 41 -10 44 -18 3 -8
9 -14 15 -14 5 0 16 -7 24 -15 12 -12 12 -18 2 -34 -7 -11 -19 -22 -28 -24 -8
-2 -3 -6 13 -9 19 -4 27 -1 27 8 0 8 7 14 15 14 8 0 15 -4 15 -10 0 -5 9 -10
20 -10 26 0 25 -8 -2 -37 l-21 -23 32 0 c22 0 30 -4 25 -12 -4 -6 -3 -8 4 -5
6 4 11 58 11 137 2 124 1 130 -19 130 -11 0 -20 4 -20 9 0 5 -14 17 -32 25
-37 19 -41 20 -32 5 4 -7 1 -10 -7 -7 -8 3 -13 15 -11 26 2 12 -2 22 -7 22 -6
0 -27 15 -47 34 -20 19 -42 33 -48 30 -6 -2 -33 16 -61 41 -27 25 -55 45 -61
45 -6 0 -19 9 -29 20 -10 11 -24 20 -32 20 -7 0 -13 4 -13 8 0 4 -17 14 -37
21 -21 8 -40 17 -43 21 -3 4 -32 21 -65 38 -33 17 -71 38 -85 46 -14 8 -43 22
-65 31 -62 26 -105 48 -105 54 0 4 -8 7 -17 8 -20 1 -173 56 -194 69 -8 5 -18
9 -24 9 -5 0 -35 8 -65 17 -30 9 -77 20 -105 24 -27 3 -57 10 -65 14 -8 5 -49
10 -90 13 -74 4 -180 39 -180 58 0 5 -9 9 -20 9 -11 0 -20 5 -20 10 0 6 -24
26 -52 45 -29 19 -62 42 -73 50 -20 14 -87 25 -234 40 l-63 6 7 -38 c5 -21 8
-45 7 -53 -3 -61 -6 -83 -10 -72 -2 8 -8 10 -15 4 -19 -16 -75 -24 -81 -13 -4
6 -20 8 -35 5 -27 -6 -28 -4 -23 21 5 28 5 28 -39 21 -24 -4 -47 -12 -51 -19
-5 -8 -9 -7 -13 4 -5 13 -26 16 -112 18 -58 1 -113 6 -122 11 -9 4 -23 5 -31
0 -9 -5 -31 -3 -51 4 -25 9 -43 10 -55 3 -11 -7 -23 -6 -34 1 -9 5 -22 7 -29
2 -7 -4 -31 -5 -54 -3 -49 6 -244 15 -301 14 -22 -1 -45 4 -53 11 -16 13 -80
20 -87 9 -3 -4 -37 -4 -77 0 -55 6 -75 5 -85 -5 -11 -12 -10 -15 6 -19 11 -3
20 -10 20 -17 0 -8 -39 -10 -147 -5 -82 4 -154 8 -161 11 -7 2 -22 -1 -32 -6
-13 -7 -20 -6 -22 2 -3 7 -32 13 -74 14 -38 2 -103 9 -144 15 -41 6 -95 11
-119 10 -24 -1 -72 4 -105 10 -84 15 -158 18 -178 7 -11 -5 -18 -5 -18 1 0 5
-21 13 -47 17 -27 3 -52 10 -58 14 -5 4 -48 10 -95 13 -47 2 -95 8 -107 12
-20 6 -23 4 -23 -18 0 -14 8 -31 18 -37 12 -8 12 -10 2 -7 -12 4 -15 -2 -12
-28 3 -24 -1 -34 -14 -39 -18 -7 -34 8 -34 32 0 6 -4 12 -10 12 -5 0 -10 -20
-10 -44 0 -35 -4 -45 -20 -49 -25 -6 -26 8 -2 22 16 9 16 10 0 16 -22 9 -24
35 -3 35 9 0 15 10 15 26 0 14 4 23 9 19 14 -8 22 10 15 30 -5 13 -8 14 -15 3
-7 -10 -9 -9 -9 4 0 9 6 18 13 21 26 9 -6 21 -88 32 -47 6 -85 8 -85 3 0 -4
14 -8 30 -8 43 0 51 -27 17 -52 -15 -11 -25 -24 -21 -29 3 -5 0 -9 -7 -9 -7 0
-21 -8 -32 -17 -18 -17 -19 -17 -32 1 -8 10 -20 16 -28 13 -8 -3 -21 3 -30 14
-9 10 -23 19 -31 19 -19 0 -24 18 -19 56 3 17 0 34 -6 38 -6 4 -51 9 -101 11
-50 3 -95 7 -101 10 -9 6 -11 4 -13 -17 -1 -18 -58 -21 -131 -9 -34 6 -115 13
-181 16 -147 7 -217 21 -235 48 -15 22 -29 36 -72 70 -20 15 -32 40 -43 82
-23 88 -36 105 -84 105 -29 0 -40 -4 -40 -15 0 -8 -4 -15 -10 -15 -5 0 -10 9
-10 20 0 11 -7 20 -15 20 -8 0 -15 -9 -15 -20 0 -11 -5 -20 -11 -20 -6 0 -9 9
-6 20 3 11 1 20 -4 20 -5 0 -9 -4 -9 -10z m-77 -67 c-7 -2 -19 -2 -25 0 -7 3
-2 5 12 5 14 0 19 -2 13 -5z m-168 -83 c-27 -12 -43 -12 -25 0 8 5 22 9 30 9
10 0 8 -3 -5 -9z m-192 -29 c-3 -13 -10 -18 -20 -14 -14 5 -13 8 3 20 23 17
23 17 17 -6z m-103 -47 c0 -18 -5 -25 -17 -22 -22 4 -29 28 -9 28 9 0 16 5 16
10 0 6 2 10 5 10 3 0 5 -12 5 -26z m50 9 c0 -5 -7 -16 -14 -26 -13 -16 -14
-16 -18 8 -4 19 -1 25 13 25 11 0 19 -3 19 -7z m105 -23 c-3 -5 -10 -10 -16
-10 -5 0 -9 5 -9 10 0 6 7 10 16 10 8 0 12 -4 9 -10z m715 -80 c0 -5 -7 -10
-16 -10 -8 0 -12 5 -9 10 3 6 10 10 16 10 5 0 9 -4 9 -10z m-895 -10 c3 -5 -1
-10 -10 -10 -9 0 -13 5 -10 10 3 6 8 10 10 10 2 0 7 -4 10 -10z m1140 0 c-3
-5 -10 -10 -16 -10 -5 0 -9 5 -9 10 0 6 7 10 16 10 8 0 12 -4 9 -10z m-215
-22 c0 -12 -3 -18 -7 -14 -11 10 -12 36 -2 36 5 0 9 -10 9 -22z m-363 6 c-3
-3 -12 -4 -19 -1 -8 3 -5 6 6 6 11 1 17 -2 13 -5z m421 -8 c-7 -8 -16 -12 -21
-9 -11 7 2 23 19 23 12 0 12 -2 2 -14z m497 -26 c-4 -12 -13 -20 -23 -18 -24
5 -24 22 0 34 29 13 31 11 23 -16z m-605 0 c0 -5 -2 -10 -4 -10 -3 0 -8 5 -11
10 -3 6 -1 10 4 10 6 0 11 -4 11 -10z m-90 -40 c0 -19 -18 -19 -23 -1 -3 14
-1 18 9 14 8 -3 14 -9 14 -13z m140 11 c0 -5 -15 -9 -32 -8 -18 0 -41 -3 -50
-7 -11 -5 -18 -4 -18 2 0 12 22 19 68 21 17 0 32 -3 32 -8z m-5 -41 c-3 -5
-23 -10 -43 -9 -33 1 -34 2 -12 9 36 12 62 12 55 0z m1405 0 c0 -5 -9 -10 -21
-10 -11 0 -17 5 -14 10 3 6 13 10 21 10 8 0 14 -4 14 -10z m150 0 c0 -5 -4
-10 -10 -10 -5 0 -10 5 -10 10 0 6 5 10 10 10 6 0 10 -4 10 -10z m-2390 -10
c0 -5 -4 -10 -10 -10 -5 0 -10 5 -10 10 0 6 5 10 10 10 6 0 10 -4 10 -10z
m1400 -5 c0 -8 -4 -15 -10 -15 -5 0 -10 7 -10 15 0 8 5 15 10 15 6 0 10 -7 10
-15z m-480 -5 c0 -5 -2 -10 -4 -10 -3 0 -8 5 -11 10 -3 6 -1 10 4 10 6 0 11
-4 11 -10z m530 -11 c0 -6 -4 -7 -10 -4 -5 3 -10 11 -10 16 0 6 5 7 10 4 6 -3
10 -11 10 -16z m142 4 c-17 -3 -21 -9 -17 -22 3 -10 -1 -24 -10 -31 -13 -11
-15 -8 -15 24 0 34 2 36 33 35 24 -1 26 -3 9 -6z m405 -8 c-4 -8 -2 -17 3 -20
10 -6 7 -71 -4 -82 -10 -10 -27 19 -21 35 3 8 5 29 5 48 0 19 5 34 11 34 6 0
9 -7 6 -15z m280 -21 c-3 -3 -12 -4 -19 -1 -8 3 -5 6 6 6 11 1 17 -2 13 -5z
m-1438 -26 c0 -16 -2 -18 -6 -8 -3 8 -11 18 -17 22 -7 5 -4 8 7 8 11 0 17 -7
16 -22z m2975 -8 c-21 -8 -37 -3 -29 10 3 4 15 6 27 2 21 -5 21 -6 2 -12z
m-1279 0 c-3 -5 -11 -10 -16 -10 -6 0 -7 5 -4 10 3 6 11 10 16 10 6 0 7 -4 4
-10z m-1025 -14 c0 -2 -9 -6 -20 -9 -11 -3 -18 -1 -14 4 5 9 34 13 34 5z m350
-26 c0 -5 -4 -10 -10 -10 -5 0 -10 5 -10 10 0 6 5 10 10 10 6 0 10 -4 10 -10z
m110 -51 c0 -18 -2 -19 -15 -9 -15 12 -12 30 6 30 5 0 9 -10 9 -21z m-7 -91
c-3 -15 -9 -25 -14 -22 -11 6 -12 48 -2 57 12 13 22 -8 16 -35z m-2903 22 c0
-5 -4 -10 -9 -10 -6 0 -13 5 -16 10 -3 6 1 10 9 10 9 0 16 -4 16 -10z m6507
-132 c-3 -8 -6 -5 -6 6 -1 11 2 17 5 13 3 -3 4 -12 1 -19z m-6992 -58 c3 -5 1
-10 -4 -10 -6 0 -11 5 -11 10 0 6 2 10 4 10 3 0 8 -4 11 -10z m7041 -16 c13
-3 24 -12 24 -19 0 -7 6 -16 13 -18 6 -3 -2 -3 -19 0 -18 3 -35 0 -38 -6 -15
-24 -34 -11 -34 25 0 27 3 34 15 30 8 -4 26 -9 39 -12z m-5405 -14 c-49 -22
-61 -24 -61 -10 0 6 11 10 25 10 14 0 25 5 25 10 0 6 12 10 28 10 24 0 23 -2
-17 -20z m-71 -20 c0 -5 -4 -10 -10 -10 -5 0 -10 5 -10 10 0 6 5 10 10 10 6 0
10 -4 10 -10z m5660 0 c0 -5 -5 -10 -11 -10 -5 0 -7 5 -4 10 3 6 8 10 11 10 2
0 4 -4 4 -10z m-160 -31 c0 -5 -9 -9 -20 -9 -22 0 -27 16 -7 23 15 5 27 -1 27
-14z m-5545 2 c3 -5 -4 -12 -15 -16 -11 -3 -19 -11 -17 -17 3 -15 -15 -19 -33
-8 -12 7 -12 12 -2 22 9 9 12 9 13 -2 0 -8 4 -5 9 8 9 22 34 30 45 13z m5735
-11 c0 -5 11 -10 25 -10 14 0 25 5 25 12 0 6 2 9 5 6 3 -3 3 -13 -1 -22 -7
-18 -39 -22 -49 -5 -4 6 -26 10 -49 9 -63 -3 -76 2 -26 10 69 11 70 11 70 0z
m-300 -28 c0 -13 -12 -22 -22 -16 -10 6 -1 24 13 24 5 0 9 -4 9 -8z m-5530
-22 c0 -5 -4 -10 -10 -10 -5 0 -10 5 -10 10 0 6 5 10 10 10 6 0 10 -4 10 -10z
m5637 -32 c-3 -8 -6 -5 -6 6 -1 11 2 17 5 13 3 -3 4 -12 1 -19z m498 -37 c3
-5 1 -12 -5 -16 -5 -3 -10 1 -10 9 0 18 6 21 15 7z m205 -152 c0 -5 -15 -9
-32 -9 l-33 0 25 14 c26 13 40 12 40 -5z m-375 -173 c17 -17 7 -30 -12 -15
-13 12 -18 29 -7 29 3 0 12 -6 19 -14z m-6735 -912 c0 -8 -4 -12 -10 -9 -5 3
-10 10 -10 16 0 5 5 9 10 9 6 0 10 -7 10 -16z m-44 -131 c-8 -8 -36 5 -36 17
0 7 6 7 21 0 11 -7 18 -14 15 -17z m-45 -83 c14 0 19 -7 18 -27 0 -16 -3 -22
-6 -15 -3 7 -16 17 -29 22 -13 5 -24 18 -24 28 0 27 14 37 18 13 2 -13 11 -21
23 -21z m-83 13 c-2 -10 -11 -19 -21 -21 -16 -3 -17 -1 -7 17 13 25 33 28 28
4z m70 -90 c2 -8 -6 -13 -22 -13 -33 0 -35 -27 -3 -40 18 -7 19 -9 4 -9 -25
-1 -42 19 -45 51 -1 24 2 26 30 25 17 -1 33 -8 36 -14z m28 -10 c-10 -10 -19
5 -10 18 6 11 8 11 12 0 2 -7 1 -15 -2 -18z m-96 -53 c-13 -8 -12 -10 3 -10 9
0 17 -7 17 -15 0 -18 -4 -18 -47 -3 -35 13 -47 34 -13 23 11 -4 20 -2 20 4 0
6 8 11 18 11 14 0 15 -2 2 -10z m70 -58 c0 -13 -39 -46 -46 -40 -3 4 3 16 13
27 18 22 33 27 33 13z m-70 -17 c-29 -16 -60 -19 -60 -6 0 13 19 19 55 20 l30
0 -25 -14z m-133 -347 c-3 -8 -6 -5 -6 6 -1 11 2 17 5 13 3 -3 4 -12 1 -19z
m7 -28 c8 -8 7 -13 -4 -20 -11 -7 -11 -10 -2 -10 7 0 10 -4 7 -10 -6 -10 -87
-14 -97 -5 -2 3 -2 19 0 36 4 30 6 31 45 26 21 -3 44 -10 51 -17z m3291 -120
c3 -5 -1 -10 -9 -10 -9 0 -16 5 -16 10 0 6 4 10 9 10 6 0 13 -4 16 -10z
m-3390 -31 c10 -15 -1 -23 -20 -15 -9 3 -13 10 -10 16 8 13 22 13 30 -1z m243
-22 c2 -19 -1 -27 -13 -27 -16 0 -36 39 -28 53 11 18 38 1 41 -26z m-170 -36
c17 -1 15 -21 -2 -21 -7 0 -27 7 -42 15 l-29 16 30 -5 c17 -2 36 -5 43 -5z
m4384 -53 c-13 -13 -26 8 -17 30 6 16 7 16 17 -1 7 -13 7 -22 0 -29z m244 -83
c1 -8 -4 -15 -11 -15 -8 0 -11 7 -8 20 6 22 15 19 19 -5z m-4746 -45 c0 -5 -5
-10 -11 -10 -5 0 -7 5 -4 10 3 6 8 10 11 10 2 0 4 -4 4 -10z m130 -20 c0 -5
-2 -10 -4 -10 -3 0 -8 5 -11 10 -3 6 -1 10 4 10 6 0 11 -4 11 -10z m5183 -27
c-13 -2 -33 -2 -45 0 -13 2 -3 4 22 4 25 0 35 -2 23 -4z m-5443 -104 c0 -5 -4
-9 -10 -9 -5 0 -10 7 -10 16 0 8 5 12 10 9 6 -3 10 -10 10 -16z m10 -60 c0 -5
-7 -9 -15 -9 -8 0 -15 7 -15 15 0 9 6 12 15 9 8 -4 15 -10 15 -15z m67 -15
c-3 -3 -12 -4 -19 -1 -8 3 -5 6 6 6 11 1 17 -2 13 -5z m-97 -34 c0 -5 -5 -10
-11 -10 -5 0 -7 5 -4 10 3 6 8 10 11 10 2 0 4 -4 4 -10z m-72 -17 c6 -19 -25
-16 -32 3 -4 11 -1 14 11 12 9 -2 18 -9 21 -15z m159 1 c-3 -3 -12 -4 -19 -1
-8 3 -5 6 6 6 11 1 17 -2 13 -5z m-86 -17 c-1 -4 -1 -16 -1 -26 0 -16 -27 -37
-36 -28 -7 7 21 67 29 64 5 -1 8 -6 8 -10z m-93 -83 c23 8 41 -11 18 -20 -18
-7 -56 12 -56 29 0 8 3 8 9 -2 5 -8 16 -11 29 -7z m5809 -20 c-3 -3 -12 -4
-19 -1 -8 3 -5 6 6 6 11 1 17 -2 13 -5z m-5779 -36 c-7 -20 -58 -23 -58 -4 0
11 10 16 31 16 20 0 29 -4 27 -12z m5807 -18 c-3 -5 -10 -10 -16 -10 -5 0 -9
5 -9 10 0 6 7 10 16 10 8 0 12 -4 9 -10z m-5785 -50 c0 -5 -5 -10 -11 -10 -5
0 -7 5 -4 10 3 6 8 10 11 10 2 0 4 -4 4 -10z m-207 -12 c17 2 48 -3 67 -12 35
-15 34 -15 -38 -11 -47 3 -71 1 -67 -5 11 -17 -33 -11 -72 10 -21 11 -30 20
-21 20 9 0 20 -4 23 -10 10 -16 55 -11 62 7 4 9 8 13 10 7 2 -5 18 -8 36 -6z
m2704 -30 c-3 -7 -5 -2 -5 12 0 14 2 19 5 13 2 -7 2 -19 0 -25z m-2817 -18 c0
-5 -4 -10 -10 -10 -5 0 -10 5 -10 10 0 6 5 10 10 10 6 0 10 -4 10 -10z m15
-30 c-3 -5 -1 -10 4 -10 6 0 11 -7 11 -15 0 -8 -7 -15 -15 -15 -8 0 -15 -7
-15 -15 0 -17 -9 -19 -28 -6 -12 7 -12 12 0 32 7 13 18 27 23 31 15 11 27 10
20 -2z m239 -7 c4 -11 1 -22 -8 -29 -17 -12 -22 -29 -6 -19 16 10 12 -11 -5
-25 -18 -15 -45 -6 -45 16 0 16 39 72 51 73 4 1 10 -7 13 -16z m-87 -25 c-3
-8 -6 -5 -6 6 -1 11 2 17 5 13 3 -3 4 -12 1 -19z m-90 -14 c-3 -3 -12 -4 -19
-1 -8 3 -5 6 6 6 11 1 17 -2 13 -5z m-84 -66 c2 -7 0 -20 -4 -30 -7 -13 -2
-19 24 -28 l32 -12 -25 -8 c-49 -16 -63 -12 -58 14 3 14 1 30 -3 38 -8 12 6
38 21 38 5 0 10 -6 13 -12z m99 -10 c-5 -5 -20 -8 -33 -6 l-24 5 25 10 c28 12
47 6 32 -9z m6018 -18 c0 -5 -7 -10 -15 -10 -8 0 -15 5 -15 10 0 6 7 10 15 10
8 0 15 -4 15 -10z m-5950 -157 c0 -5 -18 -9 -40 -10 -22 -2 -40 2 -40 7 0 6
18 10 40 10 22 0 40 -3 40 -7z m-119 -56 l39 -4 -42 1 c-30 1 -43 5 -44 16 0
8 1 10 3 3 2 -7 22 -14 44 -16z m-71 -7 c0 -5 -5 -10 -11 -10 -5 0 -7 5 -4 10
3 6 8 10 11 10 2 0 4 -4 4 -10z m160 0 c0 -5 -4 -10 -10 -10 -5 0 -10 5 -10
10 0 6 5 10 10 10 6 0 10 -4 10 -10z m-67 -67 c-13 -2 -33 -2 -45 0 -13 2 -3
4 22 4 25 0 35 -2 23 -4z m5777 -153 c0 -5 -2 -10 -4 -10 -3 0 -8 5 -11 10 -3
6 -1 10 4 10 6 0 11 -4 11 -10z m-3053 -32 c-3 -8 -6 -5 -6 6 -1 11 2 17 5 13
3 -3 4 -12 1 -19z m2813 -48 c0 -11 -7 -20 -15 -20 -8 0 -15 9 -15 20 0 11 7
20 15 20 8 0 15 -9 15 -20z m100 -50 c0 -5 -4 -10 -10 -10 -5 0 -10 5 -10 10
0 6 5 10 10 10 6 0 10 -4 10 -10z m15 -20 c-3 -5 -14 -10 -23 -10 -15 0 -15 2
-2 10 20 13 33 13 25 0z m-2855 -28 c0 -14 -11 -21 -26 -15 -8 3 -11 9 -8 14
7 11 34 12 34 1z m2690 -22 c0 -5 -7 -10 -15 -10 -8 0 -15 5 -15 10 0 6 7 10
15 10 8 0 15 -4 15 -10z m-2680 -14 c0 -2 3 -12 6 -21 5 -13 2 -16 -16 -13
-29 4 -37 38 -9 38 10 0 19 -2 19 -4z m54 -411 c3 -8 2 -15 -3 -15 -5 0 -14 7
-21 15 -10 12 -10 15 3 15 8 0 17 -7 21 -15z m2646 -96 c0 -18 -2 -19 -15 -9
-8 7 -15 16 -15 21 0 5 7 9 15 9 9 0 15 -9 15 -21z m-93 -111 c-3 -8 -6 -5 -6
6 -1 11 2 17 5 13 3 -3 4 -12 1 -19z m-34 -55 c-8 -3 -11 -15 -7 -31 4 -23 3
-24 -6 -9 -16 25 -31 21 -26 -7 3 -19 1 -23 -15 -19 -10 3 -19 11 -19 18 0 14
72 66 80 57 3 -2 -1 -7 -7 -9z m37 -13 c0 -5 -4 -10 -10 -10 -5 0 -10 5 -10
10 0 6 5 10 10 10 6 0 10 -4 10 -10z m-600 -400 c0 -5 -9 -10 -19 -10 -11 0
-23 5 -26 10 -4 6 5 10 19 10 14 0 26 -4 26 -10z m-2220 -84 c0 -3 -4 -8 -10
-11 -5 -3 -10 -1 -10 4 0 6 5 11 10 11 6 0 10 -2 10 -4z m-3 -128 c-3 -7 -5
-2 -5 12 0 14 2 19 5 13 2 -7 2 -19 0 -25z m-63 -23 c-4 -8 -8 -15 -10 -15 -2
0 -4 7 -4 15 0 8 4 15 10 15 5 0 7 -7 4 -15z m2816 -41 c0 -8 -4 -12 -10 -9
-5 3 -10 10 -10 16 0 5 5 9 10 9 6 0 10 -7 10 -16z m-48 -86 c-8 -8 -9 -4 -5
13 4 13 8 18 11 10 2 -7 -1 -18 -6 -23z m-32 -78 c0 -5 -7 -10 -15 -10 -8 0
-15 5 -15 10 0 6 7 10 15 10 8 0 15 -4 15 -10z m-2810 -182 c0 -4 -9 -8 -20
-8 -11 0 -20 4 -20 9 0 6 9 9 20 8 11 -1 20 -5 20 -9z m-40 -38 c0 -5 -2 -10
-4 -10 -3 0 -8 5 -11 10 -3 6 -1 10 4 10 6 0 11 -4 11 -10z m2637 -216 c-3 -3
-12 -4 -19 -1 -8 3 -5 6 6 6 11 1 17 -2 13 -5z"/>
<path d="M1744 8182 c-9 -5 -8 -11 2 -20 12 -11 14 -9 14 8 0 22 0 23 -16 12z"/>
<path d="M3510 8124 c0 -3 5 -14 10 -25 8 -14 8 -19 -1 -17 -7 2 -15 -5 -17
-15 -3 -16 -1 -17 17 -5 18 11 23 11 30 -1 6 -9 11 -10 15 -2 4 6 2 11 -4 11
-7 0 -8 6 -1 18 7 13 6 23 -1 30 -12 12 -48 17 -48 6z"/>
<path d="M3600 8096 c0 -2 7 -7 16 -10 8 -3 12 -2 9 4 -6 10 -25 14 -25 6z"/>
<path d="M3800 8090 c0 -5 5 -10 11 -10 5 0 7 5 4 10 -3 6 -8 10 -11 10 -2 0
-4 -4 -4 -10z"/>
<path d="M2415 8070 c3 -5 15 -10 26 -10 11 0 17 5 14 10 -3 6 -15 10 -26 10
-11 0 -17 -4 -14 -10z"/>
<path d="M1500 8000 c0 -5 5 -10 10 -10 6 0 10 5 10 10 0 6 -4 10 -10 10 -5 0
-10 -4 -10 -10z"/>
<path d="M2488 7993 c7 -3 16 -2 19 1 4 3 -2 6 -13 5 -11 0 -14 -3 -6 -6z"/>
<path d="M2411 7966 c2 -2 31 -6 64 -9 39 -4 50 -3 30 2 -31 9 -102 14 -94 7z"/>
<path d="M2475 7920 l-30 -8 37 -1 c20 0 40 4 43 9 7 11 -6 11 -50 0z"/>
<path d="M2452 7854 c-6 -11 -17 -15 -31 -11 -11 3 -21 1 -21 -4 0 -5 18 -9
39 -9 29 0 39 4 37 15 -3 24 -13 28 -24 9z"/>
<path d="M1905 7600 c3 -5 8 -10 11 -10 2 0 4 5 4 10 0 6 -5 10 -11 10 -5 0
-7 -4 -4 -10z"/>
<path d="M151 7314 c0 -11 3 -14 6 -6 3 7 2 16 -1 19 -3 4 -6 -2 -5 -13z"/>
<path d="M7630 7310 c0 -5 6 -10 13 -10 6 -1 1 -7 -12 -14 -23 -13 -23 -13 -3
-18 26 -7 32 -1 32 29 0 14 -6 23 -15 23 -8 0 -15 -4 -15 -10z"/>
<path d="M7672 7300 c0 -14 2 -19 5 -12 2 6 2 18 0 25 -3 6 -5 1 -5 -13z"/>
<path d="M7710 7260 c0 -5 5 -10 10 -10 6 0 10 5 10 10 0 6 -4 10 -10 10 -5 0
-10 -4 -10 -10z"/>
<path d="M1026 6281 c-4 -7 -5 -15 -2 -18 9 -9 19 4 14 18 -4 11 -6 11 -12 0z"/>
<path d="M965 6169 c-10 -15 1 -23 20 -15 9 3 13 10 10 16 -8 13 -22 13 -30
-1z"/>
<path d="M811 5889 c1 -13 5 -35 9 -49 6 -19 8 -16 5 18 -2 44 -16 73 -14 31z"/>
<path d="M840 5900 c0 -5 5 -10 10 -10 6 0 10 5 10 10 0 6 -4 10 -10 10 -5 0
-10 -4 -10 -10z"/>
<path d="M755 5461 c-3 -5 -1 -12 5 -16 12 -7 30 2 30 16 0 12 -27 12 -35 0z"/>
<path d="M123 5213 c-26 -30 -31 -84 -9 -102 19 -16 66 -17 94 -2 30 16 44 47
37 82 -12 54 -83 67 -122 22z"/>
<path d="M630 5209 c0 -5 5 -7 10 -4 6 3 10 8 10 11 0 2 -4 4 -10 4 -5 0 -10
-5 -10 -11z"/>
<path d="M520 5130 c0 -5 5 -10 10 -10 6 0 10 5 10 10 0 6 -4 10 -10 10 -5 0
-10 -4 -10 -10z"/>
<path d="M500 5095 c0 -8 5 -15 10 -15 6 0 10 7 10 15 0 8 -4 15 -10 15 -5 0
-10 -7 -10 -15z"/>
<path d="M50 5037 c-42 -11 -50 -21 -50 -67 0 -43 15 -60 52 -60 38 0 73 24
88 61 11 25 10 32 -4 48 -23 25 -44 29 -86 18z"/>
<path d="M4872 5025 c0 -16 2 -22 5 -12 2 9 2 23 0 30 -3 6 -5 -1 -5 -18z"/>
<path d="M4983 5043 c-10 -3 -9 -11 2 -34 20 -38 37 -37 33 3 -3 32 -13 40
-35 31z"/>
<path d="M5043 5000 c0 -25 2 -35 4 -22 2 12 2 32 0 45 -2 12 -4 2 -4 -23z"/>
<path d="M448 5013 c7 -3 16 -2 19 1 4 3 -2 6 -13 5 -11 0 -14 -3 -6 -6z"/>
<path d="M305 4950 c-3 -5 -1 -10 4 -10 6 0 11 5 11 10 0 6 -2 10 -4 10 -3 0
-8 -4 -11 -10z"/>
<path d="M388 4911 c-21 -13 -25 -20 -16 -29 8 -8 4 -14 -16 -23 -14 -7 -33
-26 -41 -42 -17 -34 -20 -97 -5 -97 6 0 10 8 10 18 0 9 10 22 23 27 14 6 23
21 25 38 2 16 10 31 18 34 8 3 14 16 14 30 0 20 4 23 20 18 17 -5 19 -2 17 16
-5 29 -16 32 -49 10z"/>
<path d="M0 4793 l0 -58 20 25 c22 28 26 60 8 78 -22 22 -28 12 -28 -45z"/>
<path d="M402 4810 c0 -14 2 -19 5 -12 2 6 2 18 0 25 -3 6 -5 1 -5 -13z"/>
<path d="M258 4699 c-10 -5 -18 -19 -18 -30 0 -11 4 -18 10 -14 5 3 7 12 3 20
-3 10 2 15 16 15 12 0 21 5 21 10 0 13 -10 12 -32 -1z"/>
<path d="M300 4674 c0 -10 31 -36 37 -31 3 3 -2 13 -10 22 -16 15 -27 19 -27
9z"/>
<path d="M270 4640 c0 -5 7 -10 16 -10 8 0 12 5 9 10 -3 6 -10 10 -16 10 -5 0
-9 -4 -9 -10z"/>
<path d="M100 4580 c0 -5 4 -10 9 -10 6 0 13 5 16 10 3 6 -1 10 -9 10 -9 0
-16 -4 -16 -10z"/>
<path d="M240 4491 c0 -21 5 -31 15 -31 8 0 15 7 15 16 0 8 -7 22 -15 30 -13
14 -15 12 -15 -15z"/>
<path d="M20 4450 c0 -11 0 -22 0 -25 0 -18 15 -5 21 18 5 20 4 27 -7 27 -8 0
-14 -9 -14 -20z"/>
<path d="M6025 4210 c3 -5 8 -10 11 -10 2 0 4 5 4 10 0 6 -5 10 -11 10 -5 0
-7 -4 -4 -10z"/>
<path d="M5790 3900 c0 -4 11 -10 25 -12 14 -3 25 -2 25 2 0 4 -11 10 -25 12
-14 3 -25 2 -25 -2z"/>
<path d="M3260 3551 c-22 -6 -25 -13 -28 -56 -3 -62 15 -99 49 -103 43 -5 62
23 55 77 -8 57 -40 91 -76 82z"/>
<path d="M5560 3535 c0 -16 16 -20 24 -6 3 5 -1 11 -9 15 -9 3 -15 0 -15 -9z"/>
<path d="M5520 3501 c0 -12 5 -21 10 -21 6 0 10 6 10 14 0 8 -4 18 -10 21 -5
3 -10 -3 -10 -14z"/>
<path d="M5498 3453 c6 -2 18 -2 25 0 6 3 1 5 -13 5 -14 0 -19 -2 -12 -5z"/>
<path d="M5468 3433 c18 -2 45 -2 60 0 15 2 0 4 -33 4 -33 0 -45 -2 -27 -4z"/>
<path d="M3120 3414 c0 -8 5 -12 10 -9 6 4 8 11 5 16 -9 14 -15 11 -15 -7z"/>
<path d="M5258 3393 c7 -3 16 -2 19 1 4 3 -2 6 -13 5 -11 0 -14 -3 -6 -6z"/>
<path d="M5836 3244 c-4 -15 -2 -32 3 -37 8 -8 11 -4 11 11 0 12 5 22 10 22 6
0 10 7 10 15 0 26 -27 16 -34 -11z"/>
<path d="M4268 3103 c7 -3 16 -2 19 1 4 3 -2 6 -13 5 -11 0 -14 -3 -6 -6z"/>
<path d="M5586 3091 c-19 -7 -18 -8 4 -14 26 -7 43 0 35 14 -7 10 -13 10 -39
0z"/>
<path d="M5430 3066 c0 -7 -9 -16 -21 -19 -12 -3 -18 -10 -15 -16 4 -5 2 -12
-3 -16 -11 -6 -41 -63 -41 -76 0 -5 9 -17 21 -28 12 -11 18 -24 14 -31 -14
-22 65 -6 95 20 24 20 31 35 36 77 3 33 1 54 -6 58 -9 6 -9 10 1 17 11 8 10 8
-4 4 -11 -3 -20 0 -23 9 -8 19 -54 20 -54 1z"/>
<path d="M4231 3054 c0 -11 3 -14 6 -6 3 7 2 16 -1 19 -3 4 -6 -2 -5 -13z"/>
<path d="M3160 2900 c0 -5 10 -10 23 -10 18 0 19 2 7 10 -19 13 -30 13 -30 0z"/>
<path d="M4737 2873 c-12 -21 -16 -63 -7 -63 5 0 10 3 11 8 0 4 2 19 4 35 4
26 0 34 -8 20z"/>
<path d="M4739 2783 c-1 -5 -1 -12 0 -17 1 -5 -4 -13 -11 -17 -10 -7 -9 -9 5
-9 12 0 17 8 17 25 0 23 -8 36 -11 18z"/>
<path d="M3787 2623 c-17 -17 -4 -51 34 -85 64 -58 116 -46 83 18 -24 47 -56
74 -84 74 -15 0 -30 -3 -33 -7z"/>
<path d="M4626 2622 c-3 -6 -1 -14 5 -17 14 -9 20 -2 10 14 -6 8 -11 9 -15 3z"/>
<path d="M4668 2578 c9 -9 15 -9 24 0 9 9 7 12 -12 12 -19 0 -21 -3 -12 -12z"/>
<path d="M4740 2578 c0 -12 49 -64 50 -52 0 7 -8 15 -17 18 -12 5 -13 10 -6
17 19 19 36 -1 29 -33 -4 -20 -1 -30 9 -34 27 -11 37 6 20 33 -9 14 -15 33
-12 43 4 14 -2 17 -34 16 -22 0 -39 -4 -39 -8z"/>
<path d="M4480 2448 c-19 -5 -52 -14 -73 -19 -34 -9 -38 -13 -35 -37 3 -26 5
-27 61 -24 93 4 154 47 112 78 -10 8 -21 14 -24 13 -3 -1 -22 -5 -41 -11z"/>
<path d="M2860 2330 c0 -5 5 -10 10 -10 6 0 10 5 10 10 0 6 -4 10 -10 10 -5 0
-10 -4 -10 -10z"/>
<path d="M2755 2020 c-3 -5 -1 -10 5 -10 7 0 9 -9 5 -22 -6 -22 -6 -22 9 -4 9
11 16 26 16 33 0 15 -26 18 -35 3z"/>
<path d="M3200 1969 c0 -5 5 -7 10 -4 6 3 10 8 10 11 0 2 -4 4 -10 4 -5 0 -10
-5 -10 -11z"/>
<path d="M2720 1938 c0 -4 4 -8 9 -8 6 0 12 4 15 8 3 5 -1 9 -9 9 -8 0 -15 -4
-15 -9z"/>
<path d="M55 1740 c-3 -5 1 -10 10 -10 9 0 13 5 10 10 -3 6 -8 10 -10 10 -2 0
-7 -4 -10 -10z"/>
<path d="M87 1669 c7 -7 15 -10 18 -7 3 3 -2 9 -12 12 -14 6 -15 5 -6 -5z"/>
<path d="M5180 1560 c0 -5 5 -10 10 -10 6 0 10 5 10 10 0 6 -4 10 -10 10 -5 0
-10 -4 -10 -10z"/>
<path d="M2585 1551 c-3 -5 -1 -12 4 -15 5 -3 11 1 15 9 6 16 -9 21 -19 6z"/>
<path d="M166 1525 c4 -8 10 -12 15 -9 11 6 2 24 -11 24 -5 0 -7 -7 -4 -15z"/>
<path d="M2557 1404 c-4 -4 -7 -19 -6 -33 0 -16 3 -20 6 -11 3 8 11 18 17 22
8 5 8 10 0 18 -6 6 -13 7 -17 4z"/>
<path d="M2455 1261 c-3 -5 -1 -12 5 -16 5 -3 10 1 10 9 0 18 -6 21 -15 7z"/>
<path d="M2420 1215 c0 -9 5 -15 11 -13 6 2 11 8 11 13 0 5 -5 11 -11 13 -6 2
-11 -4 -11 -13z"/>
<path d="M5060 1200 c0 -5 5 -10 10 -10 6 0 10 5 10 10 0 6 -4 10 -10 10 -5 0
-10 -4 -10 -10z"/>
<path d="M2380 1151 c0 -5 7 -11 14 -14 10 -4 13 -1 9 9 -6 15 -23 19 -23 5z"/>
<path d="M2420 1140 c0 -5 5 -10 10 -10 6 0 10 5 10 10 0 6 -4 10 -10 10 -5 0
-10 -4 -10 -10z"/>
<path d="M5060 1020 c0 -5 7 -10 16 -10 8 0 12 5 9 10 -3 6 -10 10 -16 10 -5
0 -9 -4 -9 -10z"/>
</g>
</svg>
